<svg xmlns="http://www.w3.org/2000/svg" viewBox="0 0 612 612"><path fill="#939393" d="M612 116.258c-22.525 9.98-46.694 16.75-72.088 19.772 25.93-15.527 45.777-40.155 55.184-69.41-24.322 14.378-51.17 24.82-79.775 30.48-22.9-24.438-55.49-39.66-91.63-39.66-69.33 0-125.55 56.218-125.55 125.514 0 9.828 1.11 19.427 3.25 28.606-104.32-5.24-196.83-55.223-258.75-131.174-10.82 18.51-16.98 40.078-16.98 63.1 0 43.56 22.188 81.994 55.84 104.48-20.573-.688-39.924-6.348-56.865-15.756v1.568c0 60.806 43.29 111.554 100.693 123.104-10.517 2.83-21.607 4.398-33.08 4.398-8.107 0-15.947-.803-23.634-2.333 15.985 49.907 62.336 86.2 117.253 87.194-42.948 33.66-97.1 53.66-155.917 53.66-10.135 0-20.117-.61-29.945-1.72 55.568 35.68 121.537 56.486 192.44 56.486 230.947 0 357.187-191.29 357.187-357.187l-.42-16.254c24.66-17.595 46-39.7 62.79-64.863z"/></svg>
